<svg width="68" height="68" viewBox="0 0 68 68" fill="none" xmlns="http://www.w3.org/2000/svg">
<path d="M34 5.66663C30.2792 5.66663 26.5948 6.39949 23.1573 7.82337C19.7197 9.24726 16.5963 11.3343 13.9653 13.9653C8.65174 19.2788 5.66663 26.4855 5.66663 34C5.66663 46.5233 13.7983 57.1483 25.0466 60.9166C26.4633 61.1433 26.9166 60.265 26.9166 59.5V54.7116C19.0683 56.4116 17.3966 50.915 17.3966 50.915C16.0933 47.6283 14.2516 46.75 14.2516 46.75C11.6733 44.9933 14.45 45.05 14.45 45.05C17.2833 45.2483 18.785 47.9683 18.785 47.9683C21.25 52.275 25.415 51 27.03 50.32C27.285 48.4783 28.0216 47.2316 28.815 46.5233C22.525 45.815 15.9233 43.3783 15.9233 32.5833C15.9233 29.4383 17 26.9166 18.8416 24.905C18.5583 24.1966 17.5666 21.25 19.125 17.425C19.125 17.425 21.505 16.66 26.9166 20.315C29.155 19.6916 31.5916 19.38 34 19.38C36.4083 19.38 38.845 19.6916 41.0833 20.315C46.495 16.66 48.875 17.425 48.875 17.425C50.4333 21.25 49.4416 24.1966 49.1583 24.905C51 26.9166 52.0766 29.4383 52.0766 32.5833C52.0766 43.4066 45.4466 45.7866 39.1283 46.495C40.1483 47.3733 41.0833 49.1016 41.0833 51.7366V59.5C41.0833 60.265 41.5366 61.1716 42.9816 60.9166C54.23 57.12 62.3333 46.5233 62.3333 34C62.3333 30.2792 61.6004 26.5948 60.1766 23.1573C58.7527 19.7197 56.6656 16.5963 54.0347 13.9653C51.4037 11.3343 48.2802 9.24726 44.8427 7.82337C41.4051 6.39949 37.7207 5.66663 34 5.66663Z" fill="white"/>
</svg>
