<svg width="19" height="25" viewBox="0 0 19 25" fill="none" xmlns="http://www.w3.org/2000/svg">
<path d="M2.00953e-06 1.25075L7.32075 12.8857L2.00953e-06 23.7514C0.000726989 23.9792 0.0645067 24.2025 0.184476 24.3973C0.304445 24.592 0.476058 24.7509 0.680847 24.8567C0.885637 24.9625 1.11585 25.0113 1.34669 24.9978C1.57754 24.9843 1.80029 24.9091 1.99095 24.7802L18.487 13.5299C19.171 13.0636 19.171 11.9411 18.487 11.4735L1.99095 0.223223C1.80068 0.0930008 1.57783 0.0166353 1.3466 0.00242372C1.11536 -0.0117879 0.884599 0.0366981 0.679376 0.142614C0.474153 0.248529 0.302318 0.407824 0.182544 0.603189C0.0627691 0.798555 -0.000362914 1.02252 2.00953e-06 1.25075Z" fill="url(#paint0_linear_72_880)"/>
<defs>
<linearGradient id="paint0_linear_72_880" x1="9.5" y1="6.08108" x2="9.5" y2="19.2568" gradientUnits="userSpaceOnUse">
<stop stop-color="#00EC64"/>
<stop offset="1" stop-color="#008639"/>
</linearGradient>
</defs>
</svg>
