<svg width="68" height="68" viewBox="0 0 68 68" fill="none" xmlns="http://www.w3.org/2000/svg">
<path d="M4.23938 4.2373H54.2194C56.7442 4.2373 59.1657 5.2403 60.951 7.02565C62.7364 8.81099 63.7394 11.2324 63.7394 13.7573V54.2173C63.7394 56.7422 62.7364 59.1636 60.951 60.949C59.1657 62.7343 56.7442 63.7373 54.2194 63.7373H13.7594C11.2345 63.7373 8.81307 62.7343 7.02772 60.949C5.24238 59.1636 4.23938 56.7422 4.23938 54.2173V4.2373Z" fill="#663399"/>
<path d="M19.2928 52.8488V42.8528C19.2928 38.8663 21.8513 36.7243 25.7188 36.7243C29.5268 36.6648 31.9068 39.1638 31.7878 43.3883H27.3848C27.5038 41.7818 26.7898 40.5918 25.5998 40.6513C24.1123 40.6513 23.6958 41.6628 23.6958 43.5668V52.2538C23.6958 54.0983 24.2908 54.9908 25.5998 55.0503C26.9683 55.0503 27.5038 53.6818 27.3848 52.1348H31.7878C32.0258 56.4783 29.2888 59.0368 25.4213 58.9773C21.6728 58.9773 19.2928 56.8948 19.2928 52.8488ZM33.3943 52.1348H37.4998C37.5593 54.0388 38.1543 55.2288 39.4633 55.2288C40.7723 55.2288 41.2483 54.4553 41.2483 52.6703C41.2483 51.1828 40.5938 50.3498 38.9873 49.5763L37.4403 48.8623C34.7033 47.5533 33.5728 45.9468 33.5728 42.7338C33.5728 39.1638 35.8338 36.6648 39.5228 36.6648C43.2118 36.6648 45.1753 39.2233 45.2348 43.3883H41.2483C41.2483 41.6628 40.8913 40.4728 39.5823 40.4728C38.3923 40.4728 37.7973 41.0678 37.7973 42.5553C37.7973 44.0428 38.3328 44.6378 39.7608 45.2328L41.1888 45.8873C44.2233 47.3153 45.5323 49.1598 45.5323 52.6108C45.5323 56.7163 43.2118 58.9773 39.4038 58.9773C35.5958 58.9773 33.4538 56.3593 33.3943 52.1348ZM46.8413 52.1348H51.0063C51.0063 54.0388 51.6608 55.2288 52.9103 55.2288C54.1598 55.2288 54.6953 54.4553 54.6953 52.6703C54.6953 51.1828 54.1003 50.3498 52.4343 49.5763L50.8873 48.8623C48.1503 47.5533 47.0793 45.9468 47.0793 42.7338C47.0793 39.1638 49.2808 36.6648 53.0293 36.6648C56.7778 36.6648 58.6223 39.2233 58.7413 43.3883H54.7548C54.6953 41.6628 54.3383 40.4728 53.0293 40.4728C51.8393 40.4728 51.3038 41.0678 51.3038 42.5553C51.3038 44.0428 51.7798 44.6378 53.2078 45.2328L54.6953 45.8873C57.6703 47.3153 58.9793 49.1598 58.9793 52.6108C58.9793 56.7163 56.6588 58.9773 52.8508 58.9773C49.0428 58.9773 46.9008 56.3593 46.8413 52.1348Z" fill="white"/>
</svg>
