<svg width="28" height="38" viewBox="0 0 28 38" fill="none" xmlns="http://www.w3.org/2000/svg">
<path d="M3.8147e-06 2.35111L10.7885 19.5708L3.8147e-06 35.6521C0.00107193 35.9892 0.0950623 36.3197 0.27186 36.6079C0.448656 36.8962 0.701559 37.1313 1.00336 37.2879C1.30515 37.4445 1.64441 37.5167 1.9846 37.4968C2.3248 37.4768 2.65306 37.3654 2.93404 37.1747L27.2441 20.5242C28.252 19.8341 28.252 18.1728 27.2441 17.4808L2.93404 0.830371C2.65364 0.637641 2.32522 0.52462 1.98446 0.503587C1.64369 0.482554 1.30362 0.554313 1.00119 0.711068C0.698751 0.867823 0.445522 1.10358 0.269012 1.39272C0.0925026 1.68186 -0.000534058 2.01333 3.8147e-06 2.35111Z" fill="url(#paint0_linear_40_13)"/>
<defs>
<linearGradient id="paint0_linear_40_13" x1="14" y1="9.5" x2="14" y2="29" gradientUnits="userSpaceOnUse">
<stop stop-color="#00EC64"/>
<stop offset="1" stop-color="#008639"/>
</linearGradient>
</defs>
</svg>
