<svg width="68" height="68" viewBox="0 0 68 68" fill="none" xmlns="http://www.w3.org/2000/svg">
<g clip-path="url(#clip0_56_154)">
<path d="M66.2665 31.0133L36.9862 1.734C35.301 0.0478135 32.5662 0.0478135 30.8784 1.734L24.7988 7.81469L32.5114 15.5274C34.3044 14.9223 36.3593 15.3282 37.7878 16.7567C39.2238 18.1943 39.6265 20.2667 39.0065 22.0655L46.4398 29.4993C48.238 28.8793 50.3136 29.2798 51.7491 30.7185C53.7572 32.725 53.7572 35.9778 51.7491 37.9854C51.2719 38.4629 50.7053 38.8416 50.0816 39.1C49.458 39.3584 48.7896 39.4914 48.1145 39.4914C47.4395 39.4914 46.771 39.3584 46.1474 39.1C45.5238 38.8416 44.9572 38.4629 44.48 37.9854C43.7632 37.2679 43.2746 36.3544 43.0756 35.3599C42.8766 34.3654 42.9762 33.3342 43.3617 32.3962L36.4299 25.4644L36.4289 43.7081C36.9318 43.9557 37.391 44.2837 37.7883 44.6792C39.7954 46.6857 39.7954 49.9375 37.7883 51.9483C35.7808 53.9548 32.5269 53.9548 30.5214 51.9483C28.5143 49.938 28.5143 46.6862 30.5214 44.6792C31.0027 44.1981 31.5745 43.8171 32.2039 43.5583V25.1457C31.5738 24.8879 31.0017 24.5066 30.5214 24.0242C29.0009 22.5048 28.6349 20.2736 29.4148 18.4057L21.811 10.8019L1.73401 30.8778C0.924019 31.6881 0.468994 32.7869 0.468994 33.9325C0.468994 35.0782 0.924019 36.177 1.73401 36.9872L31.0149 66.2665C32.7011 67.9527 35.4349 67.9527 37.1238 66.2665L66.2671 37.1232C67.0769 36.3127 67.5317 35.2139 67.5316 34.0682C67.5315 32.9224 67.0765 31.8236 66.2665 31.0133Z" fill="#F34F29"/>
</g>
<defs>
<clipPath id="clip0_56_154">
<rect width="68" height="68" fill="white"/>
</clipPath>
</defs>
</svg>
