<svg width="20" height="18" viewBox="0 0 20 18" fill="none" xmlns="http://www.w3.org/2000/svg">
<path fill-rule="evenodd" clip-rule="evenodd" d="M19.779 8.5403L12.083 0.720299C11.667 0.413632 11.3033 0.410966 10.992 0.712299C10.68 1.01297 10.6777 1.3773 10.985 1.8053L17.319 8.2333H0.681C0.227666 8.27463 0.000666667 8.5523 0 9.0663C-0.000666667 9.5803 0.226 9.85797 0.68 9.8993L17.32 9.7883L10.992 16.1683C10.6713 16.5836 10.6713 16.9476 10.992 17.2603C11.312 17.5736 11.6543 17.5943 12.019 17.3223L19.779 9.6223C19.8507 9.54893 19.9072 9.46214 19.9453 9.36691C19.9834 9.27167 20.0023 9.16986 20.001 9.0673C20.005 8.96868 19.9872 8.8704 19.9488 8.77947C19.9105 8.68854 19.8525 8.60721 19.779 8.5413" fill="#E6E6E6"/>
</svg>
