<svg width="42" height="42" viewBox="0 0 42 42" fill="none" xmlns="http://www.w3.org/2000/svg">
<path d="M0 8C0 3.58172 3.58172 0 8 0H34C38.4183 0 42 3.58172 42 8V34C42 38.4183 38.4183 42 34 42H8C3.58172 42 0 38.4183 0 34V8Z" fill="url(#paint0_linear_70_854)"/>
<path d="M24.1852 9.05878C23.4414 8.82913 22.667 9.2931 22.4526 10.0898L16.8522 31.0854C16.6378 31.8821 17.0709 32.7116 17.8147 32.9412C18.5586 33.1709 19.333 32.7069 19.5474 31.9102L25.1478 10.9146C25.3622 10.1179 24.9291 9.28842 24.1852 9.05878ZM27.7118 14.6873C27.1649 15.2731 27.1649 16.2244 27.7118 16.8103L31.619 21L27.7074 25.1897C27.1605 25.7756 27.1605 26.7269 27.7074 27.3127C28.2543 27.8985 29.1425 27.8985 29.6894 27.3127L34.5898 22.0638C35.1367 21.478 35.1367 20.5267 34.5898 19.9409L29.6894 14.692C29.1425 14.1061 28.2543 14.1061 27.7074 14.692L27.7118 14.6873ZM14.2926 14.6873C13.7457 14.1015 12.8575 14.1015 12.3106 14.6873L7.41019 19.9362C6.86327 20.522 6.86327 21.4733 7.41019 22.0591L12.3106 27.308C12.8575 27.8939 13.7457 27.8939 14.2926 27.308C14.8395 26.7222 14.8395 25.7709 14.2926 25.1851L10.381 21L14.2926 16.8103C14.8395 16.2244 14.8395 15.2731 14.2926 14.6873Z" fill="#030408"/>
<defs>
<linearGradient id="paint0_linear_70_854" x1="20.6182" y1="2.83299e-06" x2="20.6182" y2="42" gradientUnits="userSpaceOnUse">
<stop stop-color="#00EC64"/>
<stop offset="1" stop-color="#008639"/>
</linearGradient>
</defs>
</svg>
