<svg width="164" height="42" viewBox="0 0 164 42" fill="none" xmlns="http://www.w3.org/2000/svg">
<path d="M0 8C0 3.58172 3.58172 0 8 0H34C38.4183 0 42 3.58172 42 8V34C42 38.4183 38.4183 42 34 42H8C3.58172 42 0 38.4183 0 34V8Z" fill="url(#paint0_linear_21_9)"/>
<path d="M24.1852 9.05878C23.4414 8.82913 22.667 9.2931 22.4526 10.0898L16.8522 31.0854C16.6378 31.8821 17.0709 32.7116 17.8147 32.9412C18.5586 33.1709 19.333 32.7069 19.5474 31.9102L25.1478 10.9146C25.3622 10.1179 24.9291 9.28842 24.1852 9.05878ZM27.7118 14.6873C27.1649 15.2731 27.1649 16.2244 27.7118 16.8103L31.619 21L27.7074 25.1897C27.1605 25.7756 27.1605 26.7269 27.7074 27.3127C28.2543 27.8985 29.1425 27.8985 29.6894 27.3127L34.5898 22.0638C35.1367 21.478 35.1367 20.5267 34.5898 19.9409L29.6894 14.692C29.1425 14.1061 28.2543 14.1061 27.7074 14.692L27.7118 14.6873ZM14.2926 14.6873C13.7457 14.1015 12.8575 14.1015 12.3106 14.6873L7.41019 19.9362C6.86327 20.522 6.86327 21.4733 7.41019 22.0591L12.3106 27.308C12.8575 27.8939 13.7457 27.8939 14.2926 27.308C14.8395 26.7222 14.8395 25.7709 14.2926 25.1851L10.381 21L14.2926 16.8103C14.8395 16.2244 14.8395 15.2731 14.2926 14.6873Z" fill="#030408"/>
<path d="M60.9531 32.5H50.5156V9.46875H61.7031C64.526 9.51042 66.526 10.3281 67.7031 11.9219C68.4115 12.901 68.7656 14.0729 68.7656 15.4375C68.7656 16.8438 68.4115 17.974 67.7031 18.8281C67.3073 19.3073 66.724 19.7448 65.9531 20.1406C67.1302 20.5677 68.0156 21.2448 68.6094 22.1719C69.2135 23.099 69.5156 24.224 69.5156 25.5469C69.5156 26.9115 69.1719 28.1354 68.4844 29.2188C68.0469 29.9375 67.5 30.5417 66.8438 31.0312C66.1042 31.5938 65.2292 31.9792 64.2188 32.1875C63.2188 32.3958 62.1302 32.5 60.9531 32.5ZM60.8438 22.3594H55.1094V28.5H60.7656C61.776 28.5 62.5625 28.3646 63.125 28.0938C64.1458 27.5938 64.6562 26.6354 64.6562 25.2188C64.6562 24.0208 64.1615 23.1979 63.1719 22.75C62.6198 22.5 61.8438 22.3698 60.8438 22.3594ZM63.2344 17.9688C63.8594 17.5938 64.1719 16.9219 64.1719 15.9531C64.1719 14.8802 63.7552 14.1719 62.9219 13.8281C62.2031 13.5885 61.2865 13.4688 60.1719 13.4688H55.1094V18.5469H60.7656C61.776 18.5469 62.599 18.3542 63.2344 17.9688ZM83.3438 23.4688H78.375V32.5H73.6719V9.46875H84.9688C86.5833 9.5 87.8229 9.69792 88.6875 10.0625C89.5625 10.4271 90.3021 10.9635 90.9062 11.6719C91.4062 12.2552 91.8021 12.901 92.0938 13.6094C92.3854 14.3177 92.5312 15.125 92.5312 16.0312C92.5312 17.125 92.2552 18.2031 91.7031 19.2656C91.151 20.3177 90.2396 21.0625 88.9688 21.5C90.0312 21.9271 90.7812 22.5365 91.2188 23.3281C91.6667 24.1094 91.8906 25.3073 91.8906 26.9219V28.4688C91.8906 29.5208 91.9323 30.2344 92.0156 30.6094C92.1406 31.2031 92.4323 31.6406 92.8906 31.9219V32.5H87.5938C87.4479 31.9896 87.3438 31.5781 87.2812 31.2656C87.1562 30.6198 87.0885 29.9583 87.0781 29.2812L87.0469 27.1406C87.026 25.6719 86.7552 24.6927 86.2344 24.2031C85.724 23.7135 84.7604 23.4688 83.3438 23.4688ZM86.2656 19.2812C87.224 18.8438 87.7031 17.9792 87.7031 16.6875C87.7031 15.2917 87.2396 14.3542 86.3125 13.875C85.7917 13.6042 85.0104 13.4688 83.9688 13.4688H78.375V19.6562H83.8281C84.9115 19.6562 85.724 19.5312 86.2656 19.2812ZM112.719 22.4375H101.531V28.3594H114.281V32.5H96.8281V9.46875H113.719V13.5469H101.531V18.4375H112.719V22.4375ZM136.656 32.5H131.844L122.438 16.1406V32.5H117.953V9.46875H123L132.172 25.5469V9.46875H136.656V32.5ZM151.344 33.1406C148.052 33.1406 145.536 32.2448 143.797 30.4531C141.464 28.2552 140.297 25.0885 140.297 20.9531C140.297 16.7344 141.464 13.5677 143.797 11.4531C145.536 9.66146 148.052 8.76562 151.344 8.76562C154.635 8.76562 157.151 9.66146 158.891 11.4531C161.214 13.5677 162.375 16.7344 162.375 20.9531C162.375 25.0885 161.214 28.2552 158.891 30.4531C157.151 32.2448 154.635 33.1406 151.344 33.1406ZM155.891 26.9531C157.005 25.5469 157.562 23.5469 157.562 20.9531C157.562 18.3698 157 16.375 155.875 14.9688C154.76 13.5521 153.25 12.8438 151.344 12.8438C149.438 12.8438 147.917 13.5469 146.781 14.9531C145.646 16.3594 145.078 18.3594 145.078 20.9531C145.078 23.5469 145.646 25.5469 146.781 26.9531C147.917 28.3594 149.438 29.0625 151.344 29.0625C153.25 29.0625 154.766 28.3594 155.891 26.9531Z" fill="#E6E6E6"/>
<defs>
<linearGradient id="paint0_linear_21_9" x1="20.6182" y1="2.83299e-06" x2="20.6182" y2="42" gradientUnits="userSpaceOnUse">
<stop stop-color="#00EC64"/>
<stop offset="1" stop-color="#008639"/>
</linearGradient>
</defs>
</svg>
