<svg width="20" height="20" viewBox="0 0 20 20" fill="none" xmlns="http://www.w3.org/2000/svg">
<path d="M10 1.66675C11.0943 1.66675 12.178 1.8823 13.189 2.30109C14.2001 2.71987 15.1187 3.3337 15.8926 4.10752C17.4554 5.67033 18.3333 7.78994 18.3333 10.0001C18.3333 13.6834 15.9417 16.8084 12.6333 17.9167C12.2167 17.9834 12.0833 17.7251 12.0833 17.5001V16.0917C14.3917 16.5917 14.8833 14.9751 14.8833 14.9751C15.2667 14.0084 15.8083 13.7501 15.8083 13.7501C16.5667 13.2334 15.75 13.2501 15.75 13.2501C14.9167 13.3084 14.475 14.1084 14.475 14.1084C13.75 15.3751 12.525 15.0001 12.05 14.8001C11.975 14.2584 11.7583 13.8917 11.525 13.6834C13.375 13.4751 15.3167 12.7584 15.3167 9.58341C15.3167 8.65841 15 7.91675 14.4583 7.32508C14.5417 7.11675 14.8333 6.25008 14.375 5.12508C14.375 5.12508 13.675 4.90008 12.0833 5.97508C11.425 5.79175 10.7083 5.70008 10 5.70008C9.29167 5.70008 8.575 5.79175 7.91667 5.97508C6.325 4.90008 5.625 5.12508 5.625 5.12508C5.16667 6.25008 5.45833 7.11675 5.54167 7.32508C5 7.91675 4.68333 8.65841 4.68333 9.58341C4.68333 12.7667 6.63333 13.4667 8.49167 13.6751C8.19167 13.9334 7.91667 14.4417 7.91667 15.2167V17.5001C7.91667 17.7251 7.78333 17.9917 7.35833 17.9167C4.05 16.8001 1.66667 13.6834 1.66667 10.0001C1.66667 8.90573 1.88221 7.8221 2.301 6.81105C2.71979 5.80001 3.33362 4.88135 4.10744 4.10752C4.88126 3.3337 5.79992 2.71987 6.81097 2.30109C7.82202 1.8823 8.90565 1.66675 10 1.66675Z" fill="#E6E6E6"/>
</svg>
