<svg width="68" height="68" viewBox="0 0 68 68" fill="none" xmlns="http://www.w3.org/2000/svg">
<path d="M34 39.2572C36.934 39.2572 39.3125 36.8787 39.3125 33.9447C39.3125 31.0107 36.934 28.6322 34 28.6322C31.066 28.6322 28.6875 31.0107 28.6875 33.9447C28.6875 36.8787 31.066 39.2572 34 39.2572Z" fill="#00D8FF"/>
<path d="M34 46.1252C27.6147 46.2791 21.2454 45.4184 15.13 43.5752C12.3051 42.6797 9.67031 41.269 7.35888 39.4145C6.47655 38.7812 5.7418 37.9644 5.20514 37.0202C4.66848 36.076 4.34264 35.0268 4.25 33.9447C4.25 30.4321 8.109 26.9896 14.5732 24.7371C20.8524 22.7428 27.4124 21.7756 34 21.8726C40.4997 21.7827 46.9719 22.7326 53.1717 24.6861C55.8919 25.5544 58.4372 26.8968 60.69 28.6514C61.556 29.2563 62.2788 30.0438 62.8075 30.9584C63.3362 31.873 63.6579 32.8924 63.75 33.9447C63.75 37.5955 59.4363 41.2951 52.4875 43.5944C46.4906 45.378 40.2556 46.2316 34 46.1252ZM34 24.4141C27.6976 24.3317 21.4222 25.2513 15.4084 27.1384C9.45837 29.2145 6.7915 32.0535 6.7915 33.9384C6.7915 35.9104 9.65812 39.0107 15.9524 41.1634C21.8026 42.9186 27.894 43.7356 34 43.5837C39.9849 43.6908 45.9508 42.881 51.6906 41.1825C58.225 39.0171 61.2 35.9125 61.2 33.9447C61.0924 33.2696 60.8462 32.624 60.4768 32.0487C60.1074 31.4735 59.6229 30.9809 59.0538 30.6021C57.0386 29.045 54.7648 27.8552 52.3366 27.0874C46.4055 25.2267 40.2155 24.3243 34 24.4141Z" fill="#00D8FF"/>
<path d="M21.93 60.4413C20.9387 60.464 19.9591 60.2235 19.091 59.7443C16.048 57.9891 14.994 52.9273 16.2712 46.2017C17.6809 39.7658 20.1206 33.5997 23.4962 27.9416C26.6647 22.2664 30.7201 17.1343 35.5088 12.7393C37.6199 10.8164 40.0544 9.28195 42.6998 8.20672C43.6572 7.75949 44.701 7.52771 45.7577 7.52771C46.8143 7.52771 47.8582 7.75949 48.8155 8.20672C51.9797 10.03 53.0273 15.6145 51.5504 22.7821C50.099 28.8693 47.7225 34.698 44.5039 40.0647C41.4471 45.6731 37.5194 50.7606 32.8674 55.1373C30.6803 57.1365 28.1421 58.7136 25.381 59.789C24.2759 60.2003 23.109 60.4209 21.93 60.4413ZM25.6977 29.2038C22.478 34.622 20.1397 40.5173 18.7702 46.6692C17.595 52.8636 18.7234 56.5887 20.3639 57.5365C22.0639 58.5203 26.1906 57.5875 31.2014 53.21C35.6429 49.0175 39.3919 44.1475 42.3088 38.7812C45.392 33.6504 47.6716 28.0779 49.0684 22.2572C50.4581 15.5103 49.2575 11.3793 47.5533 10.3976C46.9144 10.1532 46.2319 10.0439 45.5487 10.0764C44.8655 10.109 44.1965 10.2827 43.5838 10.5867C41.2287 11.5588 39.0635 12.9385 37.1875 14.6625C32.6127 18.8725 28.739 23.7857 25.7125 29.2166L25.6977 29.2038Z" fill="#00D8FF"/>
<path d="M46.0636 60.469C43.1842 60.469 39.5271 58.7265 35.7191 55.4518C30.8471 51.0164 26.7232 45.8234 23.5068 40.0732C20.1728 34.4933 17.7524 28.4164 16.337 22.0723C15.7246 19.281 15.6109 16.4033 16.0013 13.5723C16.093 12.5225 16.4133 11.5054 16.9397 10.5925C17.4661 9.67956 18.1859 8.89282 19.0485 8.28746C22.2084 6.45783 27.5697 8.33845 33.0416 13.1962C37.5904 17.4933 41.4532 22.4627 44.4954 27.931C47.8275 33.3805 50.2733 39.3244 51.7416 45.5408C52.3815 48.4345 52.4802 51.4215 52.0327 54.3511C51.9267 55.4316 51.588 56.4763 51.04 57.4135C50.492 58.3507 49.7476 59.1582 48.858 59.7805C48.0037 60.2528 47.0396 60.4903 46.0636 60.469ZM25.7061 38.794C28.7919 44.2891 32.7312 49.2591 37.3766 53.5181C42.1558 57.63 45.9468 58.514 47.5766 57.5556C49.2766 56.5675 50.5304 52.5342 49.2384 46.0083C47.8233 40.0729 45.4773 34.3991 42.2875 29.1975C39.3844 23.9638 35.6973 19.2054 31.3544 15.0875C26.2034 10.5145 22.0256 9.49233 20.3235 10.4783C19.7933 10.9097 19.3581 11.4462 19.0454 12.054C18.7327 12.6619 18.5493 13.3279 18.5066 14.0101C18.169 16.5348 18.2791 19.0992 18.8318 21.5857C20.1936 27.6525 22.515 33.4631 25.7083 38.7982L25.7061 38.794Z" fill="#00D8FF"/>
</svg>
