<svg width="64" height="64" viewBox="0 0 64 64" fill="none" xmlns="http://www.w3.org/2000/svg">
<g clip-path="url(#clip0_56_158)">
<path d="M49 0H15C6.71573 0 0 6.71573 0 15V49C0 57.2843 6.71573 64 15 64H49C57.2843 64 64 57.2843 64 49V15C64 6.71573 57.2843 0 49 0Z" fill="#CD6799"/>
<mask id="mask0_56_158" style="mask-type:luminance" maskUnits="userSpaceOnUse" x="7" y="13" width="50" height="38">
<path d="M7 13.25H57V50.7272H7V13.25Z" fill="white"/>
</mask>
<g mask="url(#mask0_56_158)">
<path d="M50.0266 34.7906C48.2831 34.7996 46.7681 35.2196 45.4994 35.8401C45.0339 34.9184 44.5684 34.0969 44.4861 33.4944C44.3949 32.7916 44.2854 32.3626 44.3949 31.5229C44.5044 30.6831 44.9974 29.4876 44.9881 29.3964C44.9789 29.3051 44.8786 28.8761 43.8746 28.8669C42.8706 28.8576 42.0036 29.0586 41.9031 29.3234C41.8026 29.5879 41.6111 30.1904 41.4834 30.8111C41.3099 31.7239 39.4751 34.9824 38.4256 36.6891C38.0879 36.0229 37.7959 35.4386 37.7319 34.9731C37.6406 34.2704 37.5311 33.8414 37.6406 33.0016C37.7501 32.1619 38.2431 30.9661 38.2339 30.8749C38.2246 30.7836 38.1244 30.3546 37.1204 30.3456C36.1164 30.3366 35.2491 30.5371 35.1489 30.8019C35.0484 31.0666 34.9389 31.6874 34.7289 32.2896C34.5191 32.8921 32.0821 38.3321 31.4431 39.7376C31.185 40.3064 30.9141 40.8694 30.6309 41.4261C30.6309 41.4261 30.6216 41.4536 30.5944 41.4991C30.5053 41.6737 30.4139 41.8472 30.3204 42.0194V42.0286C30.1836 42.2751 30.0374 42.5031 29.9644 42.5031C29.9096 42.5031 29.8094 41.8461 29.9826 40.9516C30.3479 39.0621 31.2149 36.1231 31.2059 36.0229C31.2059 35.9681 31.3701 35.4569 30.6399 35.1921C29.9279 34.9274 29.6724 35.3656 29.6084 35.3656C29.5446 35.3656 29.4989 35.5209 29.4989 35.5209C29.4989 35.5209 30.2931 32.2166 27.9839 32.2166C26.5416 32.2166 24.5519 33.7956 23.5664 35.2196C22.4457 35.8294 21.3259 36.4409 20.2071 37.0541C19.6689 37.3554 19.1121 37.6566 18.5916 37.9396C18.5551 37.9031 18.5186 37.8574 18.4821 37.8209C15.6891 34.8361 10.5231 32.7279 10.7421 28.7209C10.8244 27.2604 11.3264 23.4269 20.6636 18.7719C28.3489 14.9841 34.4644 16.0336 35.5231 18.3611C37.0381 21.6836 32.2464 27.8536 24.3056 28.7481C21.2751 29.0859 19.6871 27.9176 19.2856 27.4796C18.8656 27.0231 18.8016 26.9959 18.6464 27.0871C18.3909 27.2239 18.5551 27.6346 18.6464 27.8719C18.8839 28.4926 19.8604 29.5879 21.5124 30.1264C22.9729 30.6011 26.5234 30.8659 30.8224 29.2046C35.6326 27.3426 39.3931 22.1671 38.2886 17.8319C37.1844 13.4324 29.8824 11.9811 22.9729 14.4364C18.8654 15.8969 14.4114 18.1969 11.2076 21.1906C7.40136 24.7506 6.79911 27.8446 7.04561 29.1406C7.93086 33.7409 14.2744 36.7346 16.8119 38.9526C16.6841 39.0256 16.5654 39.0896 16.4651 39.1444C15.1964 39.7741 10.3589 42.3024 9.15387 44.9769C7.78487 48.0071 9.37312 50.1794 10.4226 50.4714C13.6811 51.3751 17.0309 49.7504 18.8291 47.0669C20.6274 44.3834 20.4081 40.8969 19.5774 39.2996C19.5683 39.2795 19.556 39.261 19.5409 39.2449C19.8696 39.0531 20.2071 38.8524 20.5359 38.6606C21.1399 38.3037 21.7516 37.9598 22.3704 37.6291C22.0601 38.4781 21.8319 39.4911 21.7224 40.9516C21.5856 42.6676 22.2884 44.8946 23.2101 45.7709C23.6209 46.1541 24.1046 46.1634 24.4151 46.1634C25.4921 46.1634 25.9759 45.2689 26.5144 44.2101C27.1714 42.9139 27.7649 41.4079 27.7649 41.4079C27.7649 41.4079 27.0254 45.4789 29.0334 45.4789C29.7636 45.4789 30.5029 44.5296 30.8316 44.0459V44.0549C30.8316 44.0549 30.8499 44.0276 30.8864 43.9636C30.9594 43.8449 31.0049 43.7719 31.0049 43.7719V43.7536C31.2971 43.2426 31.9541 42.0834 32.9309 40.1574C34.1904 37.6749 35.4044 34.5716 35.4044 34.5716C35.4044 34.5716 35.5139 35.3291 35.8881 36.5886C36.1071 37.3281 36.5636 38.1404 36.9286 38.9254C36.6366 39.3361 36.4541 39.5641 36.4541 39.5641L36.4631 39.5734C36.2259 39.8836 35.9704 40.2214 35.6874 40.5499C34.6924 41.7366 33.5059 43.0966 33.3416 43.4891C33.1499 43.9546 33.1956 44.2921 33.5606 44.5661C33.8254 44.7669 34.2999 44.7941 34.7836 44.7669C35.6781 44.7029 36.3081 44.4839 36.6184 44.3469C37.1021 44.1736 37.6681 43.9089 38.1974 43.5164C39.1741 42.7954 39.7674 41.7639 39.7126 40.4039C39.6851 39.6554 39.4386 38.9071 39.1376 38.2041C39.2289 38.0764 39.3109 37.9486 39.4021 37.8209C40.9449 35.5664 42.1404 33.0929 42.1404 33.0929C42.1404 33.0929 42.2499 33.8504 42.6241 35.1101C42.8066 35.7489 43.1809 36.4426 43.5096 37.1181C42.0584 38.2956 41.1639 39.6646 40.8444 40.5591C40.2694 42.2204 40.7166 42.9686 41.5654 43.1421C41.9489 43.2244 42.4964 43.0419 42.8981 42.8684C43.4091 42.7041 44.0116 42.4211 44.5866 42.0011C45.5631 41.2801 46.5034 40.2761 46.4486 38.9161C46.4211 38.2956 46.2569 37.6839 46.0286 37.0906C47.2609 36.5796 48.8491 36.2966 50.8754 36.5339C55.2201 37.0451 56.0781 39.7559 55.9136 40.8969C55.7494 42.0376 54.8366 42.6584 54.5354 42.8501C54.2344 43.0419 54.1339 43.1056 54.1614 43.2426C54.1979 43.4434 54.3439 43.4341 54.5994 43.3976C54.9554 43.3339 56.8811 42.4759 56.9634 40.3766C57.1004 37.6931 54.5446 34.7631 50.0266 34.7906ZM16.5106 46.0904C15.0686 47.6601 13.0606 48.2536 12.1934 47.7516C11.2624 47.2129 11.6274 44.8946 13.3984 43.2334C14.4751 42.2204 15.8626 41.2801 16.7844 40.7051C16.9944 40.5774 17.3046 40.3949 17.6789 40.1666C17.7429 40.1301 17.7794 40.1119 17.7794 40.1119L17.9984 39.9749C18.6464 42.3481 18.0256 44.4384 16.5106 46.0904ZM27.0074 38.9526C26.5054 40.1759 25.4559 43.3064 24.8169 43.1331C24.2694 42.9869 23.9316 40.6139 24.7074 38.2681C25.0999 37.0906 25.9304 35.6851 26.4141 35.1374C27.1991 34.2611 28.0661 33.9691 28.2761 34.3251C28.5409 34.7906 27.3179 38.1859 27.0074 38.9526ZM35.6694 43.0966C35.4594 43.2061 35.2586 43.2791 35.1674 43.2244C35.1034 43.1879 35.2586 43.0419 35.2586 43.0419C35.2586 43.0419 36.3449 41.8734 36.7739 41.3441C37.0201 41.0336 37.3124 40.6686 37.6226 40.2579V40.3766C37.6226 41.7731 36.2719 42.7131 35.6694 43.0966ZM42.3506 41.5721C42.1954 41.4626 42.2229 41.0976 42.7431 39.9566C42.9439 39.5094 43.4186 38.7611 44.2309 38.0399C44.3221 38.3321 44.3861 38.6149 44.3769 38.8796C44.3679 40.6414 43.1081 41.2984 42.3506 41.5721Z" fill="white"/>
</g>
</g>
<defs>
<clipPath id="clip0_56_158">
<rect width="64" height="64" fill="white"/>
</clipPath>
</defs>
</svg>
