<svg width="68" height="68" viewBox="0 0 68 68" fill="none" xmlns="http://www.w3.org/2000/svg">
<g clip-path="url(#clip0_56_167)">
<path d="M34.0021 13.6011C24.9353 13.6011 19.2706 18.1326 17.0021 27.1995C20.4011 22.6674 24.369 20.9679 28.9011 22.1011C31.4888 22.746 33.3381 24.6224 35.386 26.7017C38.7191 30.0842 42.577 34 51.0021 34C60.0684 34 65.7337 29.4679 68.0021 20.3989C64.6021 24.9333 60.6357 26.6337 56.1027 25.5C53.5155 24.8545 51.6683 22.9787 49.6177 20.8994C46.2868 17.5169 42.4299 13.6011 34.0021 13.6011ZM17.0021 34C7.93582 34 2.27057 38.5321 0.00213623 47.6011C3.40178 43.0667 7.3681 41.3663 11.9011 42.5C14.4888 43.1455 16.3381 45.0213 18.386 47.1006C21.7191 50.4831 25.577 54.399 34.0021 54.399C43.0684 54.399 48.7337 49.8674 51.0021 40.8005C47.6021 45.3328 43.6357 47.0323 39.1027 45.899C36.5155 45.254 34.6683 43.3776 32.6177 41.2983C29.2868 37.9159 25.4299 34 17.0021 34Z" fill="#38BDF8"/>
</g>
<defs>
<clipPath id="clip0_56_167">
<rect width="68" height="68" fill="white"/>
</clipPath>
</defs>
</svg>
