<svg width="64" height="64" viewBox="0 0 64 64" fill="none" xmlns="http://www.w3.org/2000/svg">
<g clip-path="url(#clip0_56_215)">
<path d="M49 0H15C6.71573 0 0 6.71573 0 15V49C0 57.2843 6.71573 64 15 64H49C57.2843 64 64 57.2843 64 49V15C64 6.71573 57.2843 0 49 0Z" fill="#007ACC"/>
<path d="M14.1528 32.2122L14.1325 34.8332H22.4625V58.5029H28.3548V34.8332H36.6848V32.2629C36.6848 30.8407 36.6545 29.6522 36.6138 29.6217C36.5833 29.5812 31.514 29.5607 25.368 29.5709L14.1833 29.6014L14.1528 32.2122ZM51.6418 29.5269C53.267 29.9334 54.5065 30.6547 55.6443 31.8329C56.2335 32.4629 57.107 33.6109 57.1783 33.8852C57.1985 33.9664 54.415 35.8357 52.7288 36.8819C52.6678 36.9227 52.4238 36.6584 52.1495 36.2522C51.3268 35.0534 50.4633 34.5352 49.1425 34.4439C47.2023 34.3117 45.9528 35.3277 45.963 37.0242C45.963 37.5219 46.034 37.8164 46.2373 38.2229C46.6638 39.1067 47.4563 39.6349 49.9453 40.7117C54.5268 42.6827 56.4873 43.9829 57.7065 45.8317C59.0678 47.8939 59.3725 51.1854 58.448 53.6337C57.4323 56.2952 54.9128 58.1034 51.3673 58.7029C50.2703 58.8959 47.6695 58.8654 46.4913 58.6522C43.921 58.1949 41.483 56.9252 39.9795 55.2592C39.3903 54.6089 38.2423 52.9124 38.3135 52.7904C38.3438 52.7499 38.608 52.5874 38.9025 52.4147C39.187 52.2522 40.264 51.6324 41.2798 51.0432L43.1185 49.9764L43.5045 50.5454C44.043 51.3682 45.2213 52.4959 45.9325 52.8717C47.9743 53.9487 50.7783 53.7962 52.1598 52.5569C52.749 52.0184 52.9928 51.4597 52.9928 50.6369C52.9928 49.8952 52.9013 49.5702 52.5153 49.0114C52.0175 48.3004 51.0018 47.7009 48.1165 46.4514C44.815 45.0292 43.3928 44.1454 42.0925 42.7434C41.3408 41.9309 40.6295 40.6304 40.335 39.5434C40.0913 38.6394 40.0303 36.3739 40.2233 35.4597C40.9038 32.2699 43.3115 30.0452 46.7858 29.3847C47.9135 29.1714 50.5343 29.2527 51.6418 29.5269Z" fill="white"/>
</g>
<defs>
<clipPath id="clip0_56_215">
<rect width="64" height="64" fill="white"/>
</clipPath>
</defs>
</svg>
